HIERARCHY
ROOT Hips
{
	OFFSET 0.000000 83.214638 0.000000
	CHANNELS 6 Xposition Yposition Zposition Xrotation Yrotation Zrotation
	JOINT Pelvis
	{
		OFFSET 0.000000 0.000000 0.000000
		CHANNELS 3 Xrotation Yrotation Zrotation
		JOINT LeftUpLeg
		{
			OFFSET 8.479700 -4.795502 -0.379100
			CHANNELS 3 Xrotation Yrotation Zrotation
			JOINT LeftLeg
			{
				OFFSET 0.024144 -32.555107 0.112900
				CHANNELS 3 Xrotation Yrotation Zrotation
				JOINT LeftFoot
				{
					OFFSET -0.024144 -32.638630 -3.012600
					CHANNELS 3 Xrotation Yrotation Zrotation
					JOINT LeftToeBase
					{
						OFFSET 0.970200 -13.225400 11.864200
						CHANNELS 3 Xrotation Yrotation Zrotation
						End Site
						{
							OFFSET 0.000000 12.319262 0.000000
						}
					}
					JOINT LFootTongue
					{
						OFFSET 1.142400 -1.059800 6.665200
						CHANNELS 3 Xrotation Yrotation Zrotation
						End Site
						{
							OFFSET 0.000000 12.319262 0.000000
						}
					}
				}
				JOINT LeftPantLeg
				{
					OFFSET 0.918482 -16.533964 -2.284700
					CHANNELS 3 Xrotation Yrotation Zrotation
					End Site
					{
						OFFSET 0.350399 24.744368 0.000000
					}
				}
			}
		}
		JOINT RightUpLeg
		{
			OFFSET -8.479700 -4.795502 -0.379100
			CHANNELS 3 Xrotation Yrotation Zrotation
			JOINT RightLeg
			{
				OFFSET -0.023144 -32.555092 0.112900
				CHANNELS 3 Xrotation Yrotation Zrotation
				JOINT RightFoot
				{
					OFFSET 0.023144 -32.638641 -3.012700
					CHANNELS 3 Xrotation Yrotation Zrotation
					JOINT RightToeBase
					{
						OFFSET -0.970200 -13.225400 11.864200
						CHANNELS 3 Xrotation Yrotation Zrotation
						End Site
						{
							OFFSET 0.000000 12.319244 0.000000
						}
					}
					JOINT RFootTongue
					{
						OFFSET -1.142200 -1.059800 6.665200
						CHANNELS 3 Xrotation Yrotation Zrotation
						End Site
						{
							OFFSET 0.000000 12.319243 0.000000
						}
					}
				}
				JOINT RightPantLeg
				{
					OFFSET -0.919482 -16.533978 -2.284800
					CHANNELS 3 Xrotation Yrotation Zrotation
					End Site
					{
						OFFSET -0.350400 24.744419 0.000000
					}
				}
			}
		}
	}
	JOINT Spine
	{
		OFFSET 0.000000 7.722000 1.166200
		CHANNELS 3 Xrotation Yrotation Zrotation
		JOINT Spine1
		{
			OFFSET 0.000000 12.024101 0.248800
			CHANNELS 3 Xrotation Yrotation Zrotation
			JOINT Spine2
			{
				OFFSET 0.000000 11.502998 -0.491200
				CHANNELS 3 Xrotation Yrotation Zrotation
				JOINT Neck
				{
					OFFSET 0.000000 18.430702 -3.123100
					CHANNELS 3 Xrotation Yrotation Zrotation
					JOINT Head
					{
						OFFSET 0.000000 9.051102 1.034000
						CHANNELS 3 Xrotation Yrotation Zrotation
						JOINT HairB
						{
							OFFSET 0.208400 24.786102 24.822300
							CHANNELS 3 Xrotation Yrotation Zrotation
							End Site
							{
								OFFSET 0.000000 32.263779 0.000000
							}
						}
						JOINT HairA
						{
							OFFSET -7.081100 24.428299 23.196600
							CHANNELS 3 Xrotation Yrotation Zrotation
							End Site
							{
								OFFSET 0.000000 32.263779 0.000000
							}
						}
						JOINT Hat
						{
							OFFSET 16.728800 15.048294 -15.439601
							CHANNELS 3 Xrotation Yrotation Zrotation
							End Site
							{
								OFFSET 0.000000 32.263779 0.000000
							}
						}
					}
				}
				JOINT LeftShoulder
				{
					OFFSET 6.197800 13.665199 -4.064700
					CHANNELS 3 Xrotation Yrotation Zrotation
					JOINT LeftArm
					{
						OFFSET 7.778100 -0.187103 -1.709300
						CHANNELS 3 Xrotation Yrotation Zrotation
						JOINT LeftForeArm
						{
							OFFSET 22.049376 0.000000 0.000000
							CHANNELS 3 Xrotation Yrotation Zrotation
							JOINT LeftHand
							{
								OFFSET 23.009392 0.000000 0.000000
								CHANNELS 3 Xrotation Yrotation Zrotation
								JOINT LeftHandThumb1
								{
									OFFSET 3.507191 -2.063065 3.133727
									CHANNELS 3 Xrotation Yrotation Zrotation
									JOINT LeftHandThumb2
									{
										OFFSET 3.101337 -1.790558 1.790558
										CHANNELS 3 Xrotation Yrotation Zrotation
										JOINT LeftHandThumb3
										{
											OFFSET 3.058640 -1.765907 1.765906
											CHANNELS 3 Xrotation Yrotation Zrotation
											End Site
											{
												OFFSET -0.415260 3.926476 -0.049563
											}
										}
									}
								}
								JOINT LeftHandIndex1
								{
									OFFSET 11.334419 -0.901459 3.706815
									CHANNELS 3 Xrotation Yrotation Zrotation
									JOINT LeftHandIndex2
									{
										OFFSET 3.283112 0.000000 0.000000
										CHANNELS 3 Xrotation Yrotation Zrotation
										JOINT LeftHandIndex3
										{
											OFFSET 3.323853 0.000000 0.000000
											CHANNELS 3 Xrotation Yrotation Zrotation
											End Site
											{
												OFFSET -1.135597 3.097809 0.402452
											}
										}
									}
								}
								JOINT LeftHandMiddle1
								{
									OFFSET 11.335861 0.000000 0.000000
									CHANNELS 3 Xrotation Yrotation Zrotation
									JOINT LeftHandMiddle2
									{
										OFFSET 3.410492 0.000000 0.000000
										CHANNELS 3 Xrotation Yrotation Zrotation
										JOINT LeftHandMiddle3
										{
											OFFSET 3.312172 0.000000 0.000000
											CHANNELS 3 Xrotation Yrotation Zrotation
											End Site
											{
												OFFSET -1.150200 3.080154 0.400270
											}
										}
									}
								}
								JOINT LeftHandRing1
								{
									OFFSET 11.514786 -0.013176 -3.003090
									CHANNELS 3 Xrotation Yrotation Zrotation
									JOINT LeftHandRing2
									{
										OFFSET 3.053307 0.000000 0.000000
										CHANNELS 3 Xrotation Yrotation Zrotation
										JOINT LeftHandRing3
										{
											OFFSET 3.295807 0.000000 0.000000
											CHANNELS 3 Xrotation Yrotation Zrotation
											End Site
											{
												OFFSET -1.281006 3.013344 0.375733
											}
										}
									}
								}
								JOINT LeftHandPinky1
								{
									OFFSET 10.518692 -0.960396 -5.730441
									CHANNELS 3 Xrotation Yrotation Zrotation
									JOINT LeftHandPinky2
									{
										OFFSET 2.861649 0.000000 0.000000
										CHANNELS 3 Xrotation Yrotation Zrotation
										JOINT LeftHandPinky3
										{
											OFFSET 2.863380 0.000000 0.000000
											CHANNELS 3 Xrotation Yrotation Zrotation
											End Site
											{
												OFFSET -0.843597 2.711159 0.369971
											}
										}
									}
								}
							}
							JOINT LSleeve
							{
								OFFSET 6.676277 -0.344902 -1.011730
								CHANNELS 3 Xrotation Yrotation Zrotation
								End Site
								{
									OFFSET 0.000000 14.885353 0.000000
								}
							}
						}
					}
				}
				JOINT RightShoulder
				{
					OFFSET -6.197800 13.665199 -4.064700
					CHANNELS 3 Xrotation Yrotation Zrotation
					JOINT RightArm
					{
						OFFSET -7.778100 -0.187103 -1.709300
						CHANNELS 3 Xrotation Yrotation Zrotation
						JOINT RightForeArm
						{
							OFFSET -22.049376 0.000000 0.000000
							CHANNELS 3 Xrotation Yrotation Zrotation
							JOINT RightHand
							{
								OFFSET -23.009392 0.000000 0.000000
								CHANNELS 3 Xrotation Yrotation Zrotation
								JOINT RightHandThumb1
								{
									OFFSET -3.507191 -2.063065 3.133727
									CHANNELS 3 Xrotation Yrotation Zrotation
									JOINT RightHandThumb2
									{
										OFFSET -3.101337 -1.790558 1.790558
										CHANNELS 3 Xrotation Yrotation Zrotation
										JOINT RightHandThumb3
										{
											OFFSET -3.058640 -1.765907 1.765906
											CHANNELS 3 Xrotation Yrotation Zrotation
											End Site
											{
												OFFSET 0.415260 3.926476 -0.049563
											}
										}
									}
								}
								JOINT RightHandIndex1
								{
									OFFSET -11.334419 -0.901459 3.706815
									CHANNELS 3 Xrotation Yrotation Zrotation
									JOINT RightHandIndex2
									{
										OFFSET -3.283112 0.000000 0.000000
										CHANNELS 3 Xrotation Yrotation Zrotation
										JOINT RightHandIndex3
										{
											OFFSET -3.323853 0.000000 0.000000
											CHANNELS 3 Xrotation Yrotation Zrotation
											End Site
											{
												OFFSET 1.135597 3.097809 0.402452
											}
										}
									}
								}
								JOINT RightHandMiddle1
								{
									OFFSET -11.335861 0.000000 0.000000
									CHANNELS 3 Xrotation Yrotation Zrotation
									JOINT RightHandMiddle2
									{
										OFFSET -3.410492 0.000000 0.000000
										CHANNELS 3 Xrotation Yrotation Zrotation
										JOINT RightHandMiddle3
										{
											OFFSET -3.312172 0.000000 0.000000
											CHANNELS 3 Xrotation Yrotation Zrotation
											End Site
											{
												OFFSET 1.150200 3.080154 0.400270
											}
										}
									}
								}
								JOINT RightHandRing1
								{
									OFFSET -11.514786 -0.013176 -3.003090
									CHANNELS 3 Xrotation Yrotation Zrotation
									JOINT RightHandRing2
									{
										OFFSET -3.053307 0.000000 0.000000
										CHANNELS 3 Xrotation Yrotation Zrotation
										JOINT RightHandRing3
										{
											OFFSET -3.295807 0.000000 0.000000
											CHANNELS 3 Xrotation Yrotation Zrotation
											End Site
											{
												OFFSET 1.281006 3.013344 0.375733
											}
										}
									}
								}
								JOINT RightHandPinky1
								{
									OFFSET -10.518692 -0.960396 -5.730441
									CHANNELS 3 Xrotation Yrotation Zrotation
									JOINT RightHandPinky2
									{
										OFFSET -2.861649 0.000000 0.000000
										CHANNELS 3 Xrotation Yrotation Zrotation
										JOINT RightHandPinky3
										{
											OFFSET -2.863380 0.000000 0.000000
											CHANNELS 3 Xrotation Yrotation Zrotation
											End Site
											{
												OFFSET 0.843597 2.711159 0.369971
											}
										}
									}
								}
							}
							JOINT RSleeve
							{
								OFFSET -6.676277 -0.344902 -1.011730
								CHANNELS 3 Xrotation Yrotation Zrotation
								End Site
								{
									OFFSET 0.000000 14.885353 0.000000
								}
							}
						}
					}
				}
				JOINT Backpack
				{
					OFFSET 0.000000 -2.471497 36.677502
					CHANNELS 3 Xrotation Yrotation Zrotation
					End Site
					{
						OFFSET 0.000000 20.427315 0.000000
					}
				}
				JOINT Hood
				{
					OFFSET 0.000000 18.754097 -10.431000
					CHANNELS 3 Xrotation Yrotation Zrotation
					JOINT Hood1
					{
						OFFSET 0.000000 -5.011002 -7.685901
						CHANNELS 3 Xrotation Yrotation Zrotation
						End Site
						{
							OFFSET 0.000000 9.175140 0.000000
						}
					}
				}
				JOINT LHoodieString
				{
					OFFSET 5.250500 16.397697 3.089900
					CHANNELS 3 Xrotation Yrotation Zrotation
					JOINT LHoodieString1
					{
						OFFSET 0.257700 -6.364304 3.694600
						CHANNELS 3 Xrotation Yrotation Zrotation
						JOINT LHoodieString2
						{
							OFFSET 0.000000 -9.643799 2.679100
							CHANNELS 3 Xrotation Yrotation Zrotation
							End Site
							{
								OFFSET 0.000000 10.009018 0.000000
							}
						}
					}
				}
				JOINT RHoodieString
				{
					OFFSET -5.250500 16.397697 3.089900
					CHANNELS 3 Xrotation Yrotation Zrotation
					JOINT RHoodieString1
					{
						OFFSET -0.257700 -6.364304 3.694600
						CHANNELS 3 Xrotation Yrotation Zrotation
						JOINT RHoodieString2
						{
							OFFSET 0.000000 -9.643799 2.679100
							CHANNELS 3 Xrotation Yrotation Zrotation
							End Site
							{
								OFFSET 0.000000 10.009018 0.000000
							}
						}
					}
				}
			}
			JOINT LBackpack_Strap
			{
				OFFSET 15.223200 -7.719803 -6.610900
				CHANNELS 3 Xrotation Yrotation Zrotation
				End Site
				{
					OFFSET 0.000000 16.040596 0.000000
				}
			}
			JOINT RBackpack_Strap
			{
				OFFSET -15.223000 -7.719803 -6.610900
				CHANNELS 3 Xrotation Yrotation Zrotation
				End Site
				{
					OFFSET 0.000000 16.040596 0.000000
				}
			}
		}
	}
	JOINT BoyFacialAnim_Joint
	{
		OFFSET 1.000000 -82.208099 -1.550900
		CHANNELS 3 Xrotation Yrotation Zrotation
		End Site
		{
			OFFSET 0.000000 30.012791 0.000000
		}
	}
}
MOTION
Frames: 4
Frame Time: 0.033333
0.278952 76.314003 0.642204 90.074165 -0.159523 0.485617 0.000000 -0.000000 0.000000 -8.389124 9.509241 13.748129 21.033004 9.070912 0.979947 16.829543 -2.465631 -15.405676 0.000000 0.000000 0.000001 0.000000 0.000000 0.000001 0.000000 -0.000001 0.000000 -9.597825 -25.725482 -26.119304 12.990017 -8.435450 -1.939145 34.597678 2.974511 2.695577 -0.000000 -0.000001 0.000002 -0.000000 -0.000001 0.000002 -0.000001 0.000003 -0.000000 -7.472426 2.726489 -0.768964 -1.492094 0.555938 -0.208970 -1.490454 0.560984 -0.207399 -17.470193 0.102808 -2.979120 -15.112115 -4.684317 7.627522 0.000000 0.000000 -0.000000 0.000000 0.000000 -0.000000 0.000000 0.000000 -0.000000 0.567079 -2.862985 -5.529235 7.419765 -3.095197 -60.193679 0.000005 -3.843075 -0.000009 1.503033 -0.245004 -5.949347 4.891681 7.994795 1.883986 10.475097 36.544336 -16.206441 -0.000000 0.000005 -0.000001 7.775683 6.956332 -86.152728 10.250138 6.003585 -119.372077 0.000001 0.000000 -0.000002 6.554746 6.873511 -87.274306 9.404176 6.404059 -111.556045 0.000003 0.000001 -0.000001 3.127862 6.869492 -89.819672 9.007611 6.545927 -108.040711 0.000000 -0.000000 -0.000000 1.160389 7.315422 -94.148414 8.017718 2.700486 -99.510706 -0.000000 -0.000000 0.000001 0.000000 -0.000000 0.000001 0.110077 -19.341190 7.278498 -16.529509 -16.949490 58.633622 0.000002 0.000019 -0.000000 18.982897 1.285865 21.772138 2.101956 -10.083004 3.633745 25.660782 -30.716689 6.844851 0.000000 0.000002 -0.000000 9.556188 -7.137742 86.157905 10.350244 -6.061997 119.375533 0.000000 0.000001 0.000000 6.610158 -6.940074 87.289435 9.494174 -6.467136 111.542645 0.000001 0.000001 0.000002 1.946413 -7.142804 92.181121 8.379105 -6.800026 101.912331 -0.000001 0.000000 0.000000 -2.850697 -7.674973 94.127465 8.100959 -6.852436 99.572677 0.000001 -0.000001 -0.000002 0.000000 0.000002 -0.000003 0.000000 -0.000000 -0.000000 0.000000 -0.000000 -0.000000 0.000000 -0.000000 -0.000000 0.000000 -0.000000 -0.000000 0.000000 -0.000000 0.000000 0.000001 -0.000000 0.000000 0.000000 -0.000000 -0.000000 0.000000 -0.000000 0.000000 0.000001 -0.000000 0.000000 -0.000000 -0.000000 -0.000000 -0.000000 -0.000000 -0.000000 0.000000 -0.000000 0.000000 
0.189897 76.327354 21.079788 90.086022 -0.180893 0.486416 0.000000 -0.000000 -0.000000 -8.086468 9.572620 13.676460 20.826864 9.073142 0.963872 16.934083 -2.527767 -15.457731 -0.000000 -0.000002 0.000000 -0.000000 -0.000002 0.000001 -0.000000 -0.000000 0.000000 -9.508977 -25.957376 -26.110550 12.854285 -8.497530 -1.946908 34.721919 3.007443 2.683268 0.000003 0.000002 -0.000000 0.000003 0.000002 -0.000000 0.000001 0.000004 0.000001 -7.496285 2.763280 -0.627657 -1.494662 0.565508 -0.180954 -1.492912 0.570481 -0.179319 -17.590737 0.227635 -3.256765 -15.063002 -4.656111 7.787981 -0.000002 -0.000000 -0.000000 -0.000002 -0.000000 -0.000000 -0.000002 -0.000000 -0.000000 0.508400 -2.748812 -5.594829 7.171462 -3.476638 -60.395394 -0.000019 -3.984800 0.000009 1.706892 -0.378688 -5.590269 4.891683 7.994795 1.883987 10.475103 36.544343 -16.206442 0.000002 0.000003 -0.000002 7.775684 6.956332 -86.152728 10.250136 6.003586 -119.372077 -0.000002 -0.000001 -0.000000 6.554749 6.873510 -87.274299 9.404175 6.404058 -111.556045 0.000001 -0.000001 -0.000002 3.127862 6.869493 -89.819672 9.007610 6.545927 -108.040718 0.000001 -0.000001 -0.000000 1.160389 7.315425 -94.148420 8.017719 2.700487 -99.510699 -0.000000 0.000000 -0.000000 -0.000001 0.000000 0.000000 -0.342328 -20.086379 6.680842 -16.514436 -16.149991 58.859025 -0.000002 0.000011 0.000002 18.777583 1.417905 21.217776 2.101960 -10.083010 3.633745 25.660783 -30.716689 6.844851 0.000001 0.000001 -0.000000 9.556185 -7.137744 86.157905 10.350240 -6.061997 119.375533 -0.000002 -0.000001 0.000005 6.610157 -6.940077 87.289435 9.494174 -6.467137 111.542645 0.000000 0.000001 -0.000000 1.946415 -7.142807 92.181114 8.379104 -6.800026 101.912331 0.000000 -0.000000 0.000000 -2.850697 -7.674975 94.127458 8.100957 -6.852443 99.572677 0.000001 0.000002 -0.000001 -0.000001 0.000001 0.000000 -0.000000 -0.000000 -0.000000 -0.000000 -0.000000 -0.000000 -0.000000 -0.000000 -0.000000 -0.000000 -0.000000 -0.000000 -0.000000 -0.000000 -0.000000 0.000000 -0.000000 -0.000000 -0.000000 -0.000000 -0.000000 -0.000000 -0.000000 -0.000000 0.000000 -0.000000 -0.000000 -0.000001 -0.000000 0.000000 -0.000001 -0.000000 0.000000 0.000000 -0.000000 -0.000000 
0.103395 76.344780 41.514256 90.111703 -0.226579 0.485433 -0.000000 -0.000000 -0.000000 -7.747266 9.651771 13.618014 20.569304 9.079459 0.946378 17.094690 -2.614772 -15.519361 0.000001 0.000002 -0.000001 0.000001 0.000002 -0.000001 -0.000001 0.000000 -0.000002 -9.395582 -26.218280 -26.096526 12.690694 -8.594009 -1.964503 34.868672 2.878075 2.782969 -0.000002 0.000003 -0.000000 -0.000002 0.000003 -0.000000 -0.000002 -0.000000 0.000003 -7.523940 2.789403 -0.465673 -1.497150 0.573250 -0.149436 -1.495301 0.578125 -0.147726 -17.655247 0.380800 -3.619579 -15.028849 -4.663154 8.007184 -0.000001 0.000000 -0.000000 -0.000001 0.000000 -0.000000 -0.000001 0.000000 -0.000000 0.487808 -2.712159 -5.712171 6.853253 -3.817496 -60.583751 0.000008 -4.158201 0.000002 2.051478 -0.559002 -5.263255 4.891681 7.994793 1.883987 10.475104 36.544343 -16.206439 0.000000 0.000002 -0.000001 7.775684 6.956332 -86.152721 10.250138 6.003589 -119.372077 -0.000001 0.000000 -0.000002 6.554747 6.873510 -87.274306 9.404177 6.404059 -111.556045 0.000000 -0.000001 0.000000 3.127863 6.869491 -89.819672 9.007615 6.545926 -108.040718 -0.000000 0.000000 -0.000002 1.160391 7.315424 -94.148420 8.017719 2.700485 -99.510706 -0.000001 0.000001 0.000003 0.000000 0.000001 -0.000000 -0.719772 -20.665050 5.905675 -16.490527 -15.338300 59.190993 0.000004 0.000004 -0.000008 18.821447 1.668973 20.610822 2.101958 -10.083010 3.633744 25.660782 -30.716693 6.844849 0.000000 -0.000002 0.000001 9.556187 -7.137746 86.157912 10.350244 -6.061996 119.375533 -0.000002 -0.000001 -0.000000 6.610156 -6.940078 87.289428 9.494174 -6.467138 111.542645 0.000002 0.000000 -0.000000 1.946414 -7.142809 92.181114 8.379102 -6.800026 101.912331 -0.000002 -0.000000 0.000002 -2.850698 -7.674975 94.127465 8.100962 -6.852438 99.572683 0.000002 0.000001 -0.000001 -0.000003 -0.000001 0.000001 -0.000001 -0.000000 0.000000 -0.000001 -0.000000 0.000000 -0.000001 -0.000000 0.000000 -0.000001 -0.000000 0.000000 -0.000001 -0.000000 0.000000 0.000000 -0.000000 0.000000 -0.000001 -0.000000 0.000000 -0.000001 -0.000000 0.000000 0.000000 -0.000000 0.000000 -0.000000 0.000000 -0.000000 -0.000000 0.000000 -0.000000 -0.000000 -0.000000 -0.000000 
0.026601 76.374275 61.941208 90.154884 -0.302293 0.479508 -0.000000 -0.000000 -0.000000 -7.424649 9.748579 13.594097 20.286866 9.088017 0.918643 17.345643 -2.694921 -15.580121 -0.000000 -0.000001 0.000001 -0.000000 -0.000001 0.000001 -0.000001 -0.000001 -0.000001 -9.282199 -26.423294 -26.082811 12.550517 -8.711998 -2.010679 34.968550 2.555487 3.066434 0.000003 0.000000 -0.000000 0.000003 0.000000 -0.000000 0.000000 0.000002 -0.000001 -7.568295 2.799791 -0.279691 -1.502115 0.578528 -0.115005 -1.500177 0.583334 -0.113209 -17.583991 0.574754 -4.114723 -15.013082 -4.729251 8.297763 -0.000001 -0.000000 0.000000 -0.000001 -0.000000 0.000000 -0.000001 -0.000000 0.000000 0.544328 -2.833283 -5.913074 6.452846 -4.079666 -60.756541 0.000021 -4.401098 -0.000008 2.563915 -0.746252 -5.025812 4.891682 7.994792 1.883985 10.475104 36.544340 -16.206439 -0.000000 -0.000000 -0.000001 7.775684 6.956333 -86.152728 10.250136 6.003584 -119.372077 0.000002 -0.000000 -0.000002 6.554746 6.873510 -87.274299 9.404175 6.404057 -111.556045 0.000000 -0.000001 0.000000 3.127866 6.869491 -89.819679 9.007612 6.545927 -108.040718 0.000001 -0.000001 0.000001 1.160388 7.315423 -94.148420 8.017718 2.700486 -99.510706 0.000000 0.000000 0.000003 0.000000 0.000002 -0.000003 -1.072131 -21.158601 4.997158 -16.506549 -14.501482 59.598284 0.000013 -0.000011 0.000013 19.001965 1.978362 19.935099 2.101959 -10.083006 3.633744 25.660780 -30.716693 6.844850 -0.000000 -0.000001 -0.000000 9.556187 -7.137743 86.157905 10.350240 -6.061996 119.375533 0.000000 0.000000 0.000000 6.610156 -6.940075 87.289428 9.494175 -6.467139 111.542638 0.000001 0.000001 0.000002 1.946417 -7.142807 92.181114 8.379102 -6.800029 101.912331 -0.000001 0.000003 -0.000001 -2.850697 -7.674973 94.127458 8.100958 -6.852438 99.572683 0.000001 0.000001 0.000000 0.000001 -0.000002 -0.000001 0.000001 -0.000000 -0.000000 0.000001 -0.000000 -0.000000 0.000001 -0.000000 -0.000000 0.000001 -0.000000 -0.000000 0.000001 -0.000000 0.000000 0.000001 -0.000000 -0.000000 0.000001 -0.000000 -0.000000 0.000001 -0.000000 0.000000 0.000001 -0.000000 -0.000000 -0.000000 -0.000000 -0.000000 -0.000000 -0.000000 -0.000000 -0.000000 -0.000000 -0.000000 
